<?xml version="1.0" encoding="UTF-8" standalone="no"?>
<!-- Created with Inkscape (http://www.inkscape.org/) -->

<svg
   xmlns:dc="http://purl.org/dc/elements/1.1/"
   xmlns:cc="http://creativecommons.org/ns#"
   xmlns:rdf="http://www.w3.org/1999/02/22-rdf-syntax-ns#"
   xmlns:svg="http://www.w3.org/2000/svg"
   xmlns="http://www.w3.org/2000/svg"
   xmlns:sodipodi="http://sodipodi.sourceforge.net/DTD/sodipodi-0.dtd"
   xmlns:inkscape="http://www.inkscape.org/namespaces/inkscape"
   id="svg2"
   version="1.1"
   inkscape:version="0.91 r13725"
   width="250.01744"
   height="383.84247"
   viewBox="0 0 250.01744 383.84247"
   sodipodi:docname="Greek_uc_stigma.svg">
  <metadata
     id="metadata8">
    <rdf:RDF>
      <cc:Work
         rdf:about="">
        <dc:format>image/svg+xml</dc:format>
        <dc:type
           rdf:resource="http://purl.org/dc/dcmitype/StillImage" />
        <dc:title></dc:title>
      </cc:Work>
    </rdf:RDF>
  </metadata>
  <defs
     id="defs6" />
  <sodipodi:namedview
     pagecolor="#ffffff"
     bordercolor="#666666"
     borderopacity="1"
     objecttolerance="10"
     gridtolerance="10"
     guidetolerance="10"
     inkscape:pageopacity="0"
     inkscape:pageshadow="2"
     inkscape:window-width="1366"
     inkscape:window-height="705"
     id="namedview4"
     showgrid="false"
     fit-margin-top="0"
     fit-margin-left="0"
     fit-margin-right="0"
     fit-margin-bottom="0"
     inkscape:zoom="0.59"
     inkscape:cx="304.08387"
     inkscape:cy="238.35562"
     inkscape:window-x="-8"
     inkscape:window-y="-8"
     inkscape:window-maximized="1"
     inkscape:current-layer="svg2" />
  <path
     style="fill:#000000"
     d="m 131.39678,383.26066 c -24.95791,-2.89325 -37.908273,-7.3385 -44.78521,-15.37265 -9.59971,-11.21511 -2.95564,-25.8327 11.785207,-25.92861 6.303243,-0.041 11.671053,2.96297 24.000003,13.4311 16.62169,14.11297 24.12619,17.05313 41.40242,16.22091 15.19388,-0.7319 24.9336,-3.76215 34.07514,-10.60152 8.81662,-6.5963 12.19891,-12.75213 12.19891,-22.2023 0,-8.79392 -2.90892,-15.34121 -10.40472,-23.41852 C 189.9138,304.87757 175.4643,297.43185 141.80402,285.57191 80.88228,264.10661 40.2772,238.21419 20.1605,208.00414 0.32604974,178.21797 -5.1140003,139.21209 4.9110202,98.663322 16.22124,52.916281 53.29915,17.317933 101.89678,5.5477229 c 14.28922,-3.46081 24.86213,-4.63961998 41.6133,-4.63961998 21.74416,0 36.93003,3.46053998 59.35389,13.52552008 16.08399,7.21931 19.57467,7.35408 25.67145,0.99112 2.98458,-3.11487 4.79023,-6.1840701 5.91559,-10.0551701 1.61473,-5.55450958 1.63115,-5.57087958 5.28277,-5.26664958 l 3.663,0.30518 2.63445,38.99999868 c 1.44895,21.45 2.9386,43.1625 3.31034,48.25 l 0.67588,9.25 -3.42349,0 c -3.4147,0 -3.43191,-0.0237 -6.70555,-9.25 -13.40193,-37.771323 -35.16885,-60.444979 -66.20521,-68.963069 -7.32377,-2.01005 -10.49369,-2.26675 -27.28642,-2.20967 -18.41928,0.0626 -19.35149,0.1656 -30.5,3.36944 -35.94099,10.32866 -56.83785,36.38773 -64.39258,80.299637 -8.18118,47.5531 -1.65228,76.19841 23.13372,101.49845 17.666427,18.03281 40.72793,31.2311 85.03999,48.66908 37.48011,14.74943 52.82929,23.15452 65.81894,36.04194 8.32532,8.25979 14.01493,18.86002 15.46489,28.81238 1.15268,7.91196 -0.32411,19.46217 -3.53646,27.6591 -7.65408,19.53084 -28.99301,34.41958 -56.60643,39.49581 -7.88939,1.45032 -39.75879,2.04968 -49.42207,0.92946 z"
     id="path3340"
     inkscape:connector-curvature="0" />
</svg>
